<svg width="214" height="56" viewBox="0 0 214 56" fill="none" xmlns="http://www.w3.org/2000/svg" role="img" aria-labelledby="title desc">
  <title id="title">ValiSys</title>
  <desc id="desc">Logo minimalista do ValiSys</desc>
  <rect x="4" y="4" width="48" height="48" rx="16" fill="#153B2A"/>
  <path d="M17 17.5L27.2 39L39.5 17.5" stroke="#F7FAF6" stroke-width="5.2" stroke-linecap="round" stroke-linejoin="round"/>
  <path d="M24.5 31.7L30 37.2L42 22.5" stroke="#7AD9A0" stroke-width="3.6" stroke-linecap="round" stroke-linejoin="round"/>
  <path d="M68.3 16.2L79.2 40.2L90.1 16.2H96.5L82.3 47H76.1L61.9 16.2H68.3Z" fill="#142019"/>
  <path d="M107.2 47.6C104.8 47.6 102.8 47.1 101.1 46.1C99.4 45.1 98.1 43.7 97.2 42C96.3 40.3 95.9 38.4 95.9 36.3C95.9 34.2 96.4 32.3 97.3 30.6C98.2 28.9 99.5 27.6 101.2 26.6C102.9 25.6 104.9 25.1 107.1 25.1C109.3 25.1 111.2 25.6 112.7 26.6C114.2 27.6 115.2 28.9 115.8 30.4V25.7H121.5V47H115.8V42.3C115.1 43.9 114 45.2 112.5 46.1C111 47.1 109.2 47.6 107.2 47.6ZM108.8 42.7C110.8 42.7 112.5 42.1 113.8 40.8C115.1 39.5 115.8 38 115.8 36.3C115.8 34.5 115.1 33 113.8 31.8C112.5 30.5 110.8 29.9 108.8 29.9C106.7 29.9 105 30.5 103.7 31.8C102.4 33 101.8 34.5 101.8 36.3C101.8 38 102.4 39.5 103.7 40.8C105 42.1 106.7 42.7 108.8 42.7Z" fill="#142019"/>
  <path d="M130.4 47V15H136.1V47H130.4Z" fill="#142019"/>
  <path d="M144.5 47V25.7H150.2V47H144.5ZM147.3 22.2C146.3 22.2 145.5 21.9 144.9 21.3C144.3 20.7 144 20 144 19.1C144 18.2 144.3 17.5 144.9 16.9C145.5 16.3 146.3 16 147.3 16C148.3 16 149.1 16.3 149.7 16.9C150.3 17.5 150.6 18.2 150.6 19.1C150.6 20 150.3 20.7 149.7 21.3C149.1 21.9 148.3 22.2 147.3 22.2Z" fill="#142019"/>
  <path d="M166.8 47.6C164.4 47.6 162.2 47.2 160.3 46.3C158.4 45.4 156.9 44.2 155.8 42.6L159.5 38.9C160.5 40.1 161.6 41 162.9 41.7C164.2 42.4 165.6 42.7 167.1 42.7C168.8 42.7 170 42.4 170.8 41.9C171.6 41.4 172 40.7 172 39.8C172 39 171.7 38.4 171.1 38C170.5 37.5 169.7 37.1 168.7 36.8C167.7 36.5 166.6 36.2 165.4 35.9C164.2 35.6 163 35.2 161.8 34.7C160.6 34.2 159.6 33.5 158.8 32.6C158 31.7 157.6 30.5 157.6 28.9C157.6 26.3 158.6 24.1 160.5 22.5C162.4 20.9 165 20.1 168.2 20.1C170.2 20.1 172.1 20.5 173.8 21.2C175.5 21.9 176.9 23 178 24.4L174.3 28.1C173.5 27.1 172.6 26.4 171.6 25.9C170.6 25.4 169.4 25.2 168.1 25.2C166.7 25.2 165.6 25.5 164.9 26C164.2 26.5 163.8 27.2 163.8 28C163.8 28.7 164.1 29.3 164.7 29.7C165.3 30.1 166.1 30.5 167.1 30.8C168.1 31.1 169.2 31.4 170.4 31.7C171.6 32 172.8 32.5 174 33C175.2 33.5 176.2 34.3 177 35.3C177.8 36.3 178.2 37.6 178.2 39.3C178.2 41.9 177.2 43.9 175.2 45.4C173.2 46.9 170.4 47.6 166.8 47.6Z" fill="#142019"/>
  <path d="M189.1 47.3L180.2 25.7H186.5L192.1 40.4L197.8 25.7H203.9L190.3 57H184.2L189.1 47.3Z" fill="#1F7A4D"/>
</svg>
